<?xml version="1.0" encoding="UTF-8" standalone="no"?>
<!-- Created with Inkscape (http://www.inkscape.org/) -->

<svg
   version="1.1"
   id="svg1"
   width="182.96855"
   height="183.02867"
   viewBox="0 0 182.96855 183.02867"
   sodipodi:docname="i_decor.svg"
   inkscape:version="1.4.2 (f4327f4, 2025-05-13)"
   xmlns:inkscape="http://www.inkscape.org/namespaces/inkscape"
   xmlns:sodipodi="http://sodipodi.sourceforge.net/DTD/sodipodi-0.dtd"
   xmlns="http://www.w3.org/2000/svg"
   xmlns:svg="http://www.w3.org/2000/svg">
  <defs
     id="defs1" />
  <sodipodi:namedview
     id="namedview1"
     pagecolor="#ffffff"
     bordercolor="#000000"
     borderopacity="0.25"
     inkscape:showpageshadow="2"
     inkscape:pageopacity="0.0"
     inkscape:pagecheckerboard="0"
     inkscape:deskcolor="#d1d1d1"
     inkscape:zoom="2.0276382"
     inkscape:cx="67.07311"
     inkscape:cy="138.83147"
     inkscape:window-width="1920"
     inkscape:window-height="1009"
     inkscape:window-x="-8"
     inkscape:window-y="-8"
     inkscape:window-maximized="1"
     inkscape:current-layer="g1" />
  <g
     inkscape:groupmode="layer"
     inkscape:label="Image"
     id="g1"
     transform="translate(-9.1489985,-10.971322)">
    <path
       style="fill:#000000"
       d="M 50.330503,187.75 C 46.986911,184.3125 42.057215,179.03324 39.375623,176.0183 36.69403,173.00337 32.7,168.65075 30.5,166.34582 c -2.2,-2.30493 -5.45609,-5.91317 -7.235755,-8.0183 -1.779665,-2.10514 -5.482929,-6.47448 -8.229476,-9.70966 C 12.035406,145.0849 9.7771715,141.32914 9.3803199,139.21374 8.8065815,136.15545 9.3441311,114.58014 10.506822,94 c 0.201972,-3.575 0.437316,-10.55 0.522987,-15.5 0.216779,-12.525305 2.008075,-23.584264 3.93427,-24.289078 0.844756,-0.309104 4.258516,-3.295514 7.586132,-6.636465 C 31.478642,38.610246 36.839103,34.011671 39.570664,32.973134 40.98267,32.43629 42,31.242845 42,30.123243 c 0,-1.059443 1.603954,-3.208081 3.564343,-4.774751 1.960388,-1.566671 4.908997,-4.074986 6.552464,-5.574034 1.643467,-1.499047 4.892275,-4.093 7.219572,-5.764338 l 4.23145,-3.038798 40.966081,0.517215 40.96609,0.517215 4,4.50526 c 2.2,2.477893 4.33698,4.501599 4.74886,4.497124 1.95279,-0.02122 16.21941,16.190257 15.17078,17.23889 -0.30946,0.309459 0.88457,0.880515 2.65339,1.269014 3.84975,0.845547 8.80747,5.57474 11.24299,10.724753 0.97299,2.057437 3.35138,5.432437 5.2853,7.5 L 192.11755,61.5 191.48393,90 c -0.3485,15.675 -0.79967,33.675 -1.00261,40 -0.20294,6.325 -0.39426,12.89999 -0.42515,14.61109 -0.0578,3.20001 -4.87333,8.36714 -28.55617,30.64103 -4.4,4.13823 -10.61817,10.04942 -13.81816,13.13597 L 141.86369,194 H 99.136724 56.40976 Z M 114.5,178.83337 c 2.75,-1.28336 6.45438,-3.37073 8.23195,-4.63861 4.23746,-3.02244 9.77305,-13.16138 11.29879,-20.69476 1.57382,-7.77081 1.43786,-20.26423 -0.24355,-22.38017 C 131.64982,128.43011 130,125.11658 130,123.51357 130,122.68111 129.49691,122 128.88202,122 c -0.6149,0 -2.60301,-1.30387 -4.41804,-2.89749 -1.81503,-1.59361 -5.92444,-3.9435 -9.13202,-5.22196 -5.33313,-2.12565 -7.64957,-2.35434 -27.08196,-2.67365 -11.6875,-0.19205 -21.235688,0.0203 -21.218197,0.47196 0.01749,0.45163 0.720361,1.72114 1.561931,2.82114 1.324347,1.73103 1.427494,5.09318 0.766972,25 -0.419735,12.65 -0.655411,25.18113 -0.523724,27.84695 0.181872,3.68175 -0.370333,5.88743 -2.297054,9.17513 l -2.536484,4.32818 11.120368,0.0303 c 6.116203,0.0167 11.402928,0.32872 11.748278,0.69347 0.345351,0.36476 5.57791,0.42233 11.62791,0.12795 8.64818,-0.42081 12.06901,-1.03413 16,-2.86861 z m -27.85745,-3.79688 c -5.788896,-1.86584 -6.869873,-3.78659 -6.198951,-11.01468 0.33295,-3.58699 0.830105,-14.17181 1.104789,-23.52181 0.680147,-23.15166 0.405988,-22.2317 6.760745,-22.68626 20.482367,-1.46512 32.597747,7.34204 34.242327,24.89212 1.30662,13.94354 -2.78715,23.45391 -12.7462,29.61112 -3.81667,2.35966 -5.99681,2.9281 -12.465468,3.25017 -4.311886,0.21468 -9.125644,-0.0241 -10.697242,-0.53066 z M 51.99558,153.50533 c 0.682257,-0.82207 1.027455,-2.30924 0.767106,-3.30482 -0.307027,-1.17407 0.617827,-2.72057 2.631975,-4.40106 2.827684,-2.35925 3.104575,-3.11435 3.096795,-8.44518 L 58.482913,131.5 52.241456,131.25807 C 47.114997,131.05935 46,131.29868 46,132.59777 c 0,0.86991 0.967839,2.36535 2.150754,3.32322 1.62387,1.31493 1.990765,2.37902 1.497676,4.34364 -1.371474,5.46439 -9.695189,4.75034 -15.604315,-1.33861 -5.196861,-5.35501 -5.869395,-11.39625 -1.922846,-17.27252 1.466131,-2.18301 3.726127,-4.55716 5.022212,-5.27587 C 39.955284,114.8184 44,114.59564 44,116 c 0,0.55 1.0699,1 2.377555,1 1.307656,0 2.937756,0.675 3.622445,1.5 2.17538,2.62117 8,1.58022 8,-1.42973 0,-1.04022 -1.817117,-2.62327 -4.615159,-4.02068 -8.472699,-4.23147 -20.461262,-1.51074 -26.866026,6.09708 -1.4668,1.74233 -2.033191,4.04095 -2.181491,8.85333 -0.284888,9.24468 1.044565,13.42676 5.30011,16.67262 3.112571,2.37408 3.336041,2.81051 1.727912,3.37461 -1.015849,0.35634 2.330995,0.88611 7.437432,1.17727 5.106436,0.29116 9.553934,0.79888 9.883327,1.12827 0.329393,0.32939 0.08868,1.21368 -0.534928,1.96507 -0.623604,0.7514 -0.837729,1.66227 -0.475834,2.02417 1.106222,1.10622 3.01448,0.73666 4.320237,-0.83668 z m 93.41611,-2.0156 c 1.05676,-0.79971 2.90861,-1.19646 4.1409,-0.88717 3.15044,0.79071 3.77674,-0.85107 3.53131,-9.25683 -0.25485,-8.72782 0.23661,-9.13355 10.11138,-8.34756 7.10375,0.56543 6.56343,-0.52033 5.72377,11.50183 -0.41749,5.97773 -0.40839,6.00122 2.45277,6.32818 1.5795,0.1805 3.33631,-0.13631 3.90402,-0.70402 0.63137,-0.63137 1.01499,-7.55439 0.98789,-17.82817 L 176.21943,115.5 h -3.33905 -3.33906 l -0.0207,6 -0.0207,6 -6.33731,0.29998 c -8.27851,0.39188 -9.3674,-0.53989 -9.02858,-7.72583 l 0.26282,-5.57415 -4.44847,-0.29341 -4.44846,-0.2934 -0.22979,13.2934 c -0.26726,15.46049 -1.13814,20.35622 -3.58519,20.15452 -1.22323,-0.10082 -1.68502,0.65283 -1.68502,2.75 0,3.26908 2.17976,3.82437 5.41169,1.37862 z M 44.628774,138.29544 C 43.804513,137.47118 41,138.79149 41,140.0038 c 0,0.73956 0.639458,0.72434 2.085646,-0.0496 1.147106,-0.61391 1.841513,-1.36033 1.543128,-1.65872 z M 152.29966,103.36842 c 1.76019,-0.89738 5.26269,-3.545116 7.78334,-5.88387 4.95424,-4.596723 9.16399,-6.101541 12.99474,-4.645092 1.57452,0.598632 3.59869,0.525427 5.77075,-0.208701 C 185.392,90.419127 182.20383,89.5 167.98885,89.5 c -7.69411,0 -13.98919,-0.2824 -13.98907,-0.627555 4.1e-4,-1.176985 2.49496,-2.604496 8.27142,-4.733335 9.69742,-3.57386 19.8116,-9.389642 18.54032,-10.660919 -0.29836,-0.298361 -2.51551,-0.09432 -4.92699,0.45343 -5.84012,1.326527 -19.6942,4.207838 -23.14743,4.814099 -4.48208,0.786891 -2.47801,-1.697097 5.84583,-7.24572 7.73291,-5.15472 13.18246,-10.067943 12.22686,-11.023542 -1.06764,-1.067639 -10.19029,1.64894 -17.48899,5.207941 -4.43809,2.164109 -7.78319,3.253208 -8.32571,2.710687 -0.54252,-0.54252 1.51241,-3.516085 5.11459,-7.400988 6.69234,-7.21762 11.36229,-13.855465 10.41454,-14.803208 -0.34108,-0.341083 -1.38606,-0.07368 -2.32218,0.594241 -0.93612,0.667915 -4.0839,2.618383 -6.99507,4.334372 -2.91116,1.71599 -7.11283,4.868448 -9.33704,7.005464 -3.5939,3.45302 -5.86993,4.228174 -5.86993,1.999138 0,-0.416823 3.15,-5.553084 7,-11.413914 6.43349,-9.793661 8.4811,-14.388614 6.03528,-13.543524 -1.91618,0.662088 -16.35346,15.422239 -18.70196,19.12021 C 128.17408,57.686835 126,58.498487 126,55.904642 c 0,-0.537529 2.26919,-5.62319 5.04263,-11.301469 11.00155,-22.524248 3.35032,-21.058983 -8.5993,1.646827 -1.95381,3.7125 -3.95129,6.75 -4.43884,6.75 -1.9444,0 -2.18205,-2.461753 -0.71029,-7.357945 2.6231,-8.726425 3.56669,-14.024928 3.00826,-16.892055 -0.29459,-1.5125 -0.82065,-2.735859 -1.16904,-2.718575 -1.56982,0.07788 -4.7324,6.036482 -7.59836,14.316002 -4.35993,12.595516 -5.53183,12.381337 -5.54871,-1.014094 C 105.97884,33.375 105.70949,27.518638 105.38781,26.319197 104.56173,23.239066 102,24.5463 102,28.047972 c 0,1.558697 -0.45,3.112109 -1,3.452028 -0.55,0.339919 -1,1.687181 -1,2.993917 0,1.306736 -0.511341,3.642679 -1.136313,5.190983 -0.624971,1.548305 -1.043866,4.456818 -0.930876,6.463363 0.112989,2.006544 -0.253092,3.931648 -0.813514,4.278008 C 95.623039,51.351009 94,47.684487 94,43.379631 94,38.455095 91.135795,26.871016 89.488128,25.131676 86.510445,21.988319 85.774409,24.954066 86.14121,38.617579 86.360285,46.778222 86.119972,52.083382 85.524082,52.241326 84.987326,52.383597 84.211747,51.375 83.800572,50 77.983145,30.546098 75.06885,24.039263 72.161179,24.012379 c -2.306164,-0.02132 0.07384,18.519172 3.398775,26.476868 1.998645,4.783432 0.49314,6.86333 -2.197348,3.035696 C 72.338173,52.067529 70.4875,49.600742 69.25,48.043194 68.0125,46.485646 67,44.818519 67,44.338468 67,42.636071 57.717067,32.882933 56.886894,33.713106 c -0.464056,0.464056 0.260871,3.530949 1.610948,6.815316 1.350078,3.284368 2.465368,6.610192 2.478423,7.390721 0.01305,0.780529 1.373735,3.811212 3.023735,6.734852 1.65,2.923639 3,5.772525 3,6.330856 0,2.232441 -3.071607,0.809617 -5.707368,-2.643756 C 56.085548,51.518777 50.614195,45.851853 47.85862,44.42689 43.822335,42.339646 43.290796,44.444642 46.934143,48.08799 48.620365,49.774211 50,51.704231 50,52.376923 c 0,0.672692 0.395639,1.650577 0.879198,2.173077 0.483558,0.5225 1.396618,2.571327 2.029021,4.55295 0.632403,1.981622 2.261764,4.647564 3.620802,5.924314 5.29388,4.973342 0.852381,5.557181 -5.49814,0.722736 -2.348058,-1.7875 -5.721725,-4.15 -7.497038,-5.25 -1.775313,-1.1 -4.399566,-2.824757 -5.831673,-3.832793 -1.432108,-1.008037 -3.308327,-1.683037 -4.169376,-1.5 -1.157391,0.24603 -0.376712,1.636344 2.994431,5.332793 2.507987,2.75 5.925562,6.855301 7.594613,9.122892 1.66905,2.26759 4.12443,4.706131 5.4564,5.418979 C 50.910207,75.75472 52,76.685361 52,77.109963 c 0,2.27631 -2.833711,1.58916 -9.773856,-2.370074 C 33.851618,69.962365 26.965124,67 24.233524,67 c -1.148967,0 0.162777,1.800473 3.923628,5.385491 C 34.673506,78.597183 42.198526,84 44.333789,84 c 0.81039,0 3.091812,1.4328 5.069824,3.183999 3.512891,3.110077 4.416622,5.973988 2.726392,8.63989 -0.681444,1.0748 -1.135496,1.027763 -2.413259,-0.25 -2.167464,-2.167464 -3.212077,-1.976932 -4.485602,0.81815 -0.922661,2.025021 -0.729697,2.730418 1.257646,4.597431 3.635586,3.41545 7.451298,2.01583 13.588211,-4.98423 5.46686,-6.235765 9.492361,-8.594082 12.850342,-7.528301 C 75.877745,89.413361 77.334626,92.506229 76,95 c -1.241076,2.318971 -2.106458,2.486797 -3.867321,0.75 -1.015791,-1.001909 -1.554275,-0.861173 -2.713132,0.70909 -1.283177,1.738717 -1.237346,2.167555 0.407435,3.81234 1.019287,1.01928 3.346655,1.89571 5.17193,1.9476 2.701251,0.0768 4.074212,-0.72549 7.379646,-4.312335 C 84.612088,95.483013 87.778055,92.4875 89.41404,91.25 94.626007,87.307539 102,88.978975 102,94.102813 102,96.456188 99.124762,97.819903 98,96 c -1.035022,-1.6747 -4,-0.537366 -4,1.534357 0,3.385783 2.01709,5.465893 5.285184,5.450333 4.025816,-0.0192 4.824236,-0.53383 12.327506,-7.946118 6.51861,-6.439574 9.1214,-7.313977 13.2219,-4.441879 2.80356,1.963694 2.6709,6.695335 -0.20302,7.240888 -1.1664,0.221416 -1.61225,-0.05983 -1.18662,-0.748512 1.01536,-1.642882 -2.23491,-2.508279 -3.98026,-1.059762 -3.21085,2.664763 0.69683,7.970693 5.8702,7.970693 2.33668,0 4.38136,-1.46025 9.80155,-7 5.86173,-5.991018 7.3463,-7 10.29954,-7 2.35303,0 3.91061,0.656743 4.89678,2.064692 2.70317,3.859313 -0.92328,9.245138 -3.68342,5.470433 -1.1245,-1.537842 -1.38727,-1.555821 -2.53457,-0.173413 -2.21715,2.671508 0.23307,6.633218 4.68489,7.574898 0.16481,0.0349 1.73981,-0.67082 3.5,-1.56819 z M 179,104.13586 C 179,103.23666 171.34363,100 169.21657,100 c -1.56084,0 -1.57064,2.24593 -0.0166,3.8 1.36527,1.36527 9.8,1.65434 9.8,0.33586 z M 28.896221,101.88633 c 4.14886,-1.4463 3.470354,-3.300915 -1.355299,-3.704551 -4.765818,-0.398632 -6.871267,1.340014 -4.099792,3.385541 2.312238,1.70658 1.595023,1.66464 5.455091,0.31901 z M 41.271603,91.070362 c 1.52081,-1.611302 2.419349,-3.138927 1.996753,-3.394723 C 40.603063,86.062342 30.715487,84 25.646079,84 H 19.65516 l 7.92242,4.889332 c 4.357331,2.689132 8.598881,4.939132 9.425667,5 0.826787,0.06087 2.747547,-1.207669 4.268356,-2.81897 z"
       id="path1"
       sodipodi:nodetypes="ssssssssssssssscccsssssscssssscccsssssssssssssssccssscsssssscsssscssssssssssssssssssssscssssssscccccsscccsssccssssssssssssssssssssssssssssscssssssssssssssssssssssssssssssssssssssssssssssssssssssssssssssssscssssssssssscssssssssssssscsss" />
  </g>
</svg>
